HIERARCHY
ROOT Hips
{
    OFFSET 0.000000 0.000000 0.000000
    CHANNELS 6 Xposition Yposition Zposition Zrotation Xrotation Yrotation
    JOINT Spine
    {
        OFFSET -0.000000 8.349382 0.000000
        CHANNELS 3 Zrotation Xrotation Yrotation
        JOINT Spine1
        {
            OFFSET -0.000000 23.269058 0.000000
            CHANNELS 3 Zrotation Xrotation Yrotation
            JOINT Neck
            {
                OFFSET -0.000000 23.173496 2.106681
                CHANNELS 3 Zrotation Xrotation Yrotation
                JOINT Head
                {
                    OFFSET -0.000000 14.255042 -2.036435
                    CHANNELS 3 Zrotation Xrotation Yrotation
                    End Site
                    {
                        OFFSET -0.000000 25.455433 0.000000
                    }
                }
            }
            JOINT LeftShoulder
            {
                OFFSET 3.917082 21.531742 0.000256
                CHANNELS 3 Zrotation Xrotation Yrotation
                JOINT LeftArm
                {
                    OFFSET 10.728225 0.000000 0.000000
                    CHANNELS 3 Zrotation Xrotation Yrotation
                    JOINT LeftForeArm
                    {
                        OFFSET 30.046112 0.000000 0.000000
                        CHANNELS 3 Zrotation Xrotation Yrotation
                        JOINT LeftHand
                        {
                            OFFSET 29.023712 0.000000 0.000000
                            CHANNELS 3 Zrotation Xrotation Yrotation
                            End Site
                            {
                                OFFSET 15.273261 0.000000 0.000000
                            }
                        }
                    }
                }
            }
            JOINT RightShoulder
            {
                OFFSET -3.920664 21.531742 0.000256
                CHANNELS 3 Zrotation Xrotation Yrotation
                JOINT RightArm
                {
                    OFFSET -10.728225 0.000000 0.000000
                    CHANNELS 3 Zrotation Xrotation Yrotation
                    JOINT RightForeArm
                    {
                        OFFSET -30.046112 0.000000 0.000000
                        CHANNELS 3 Zrotation Xrotation Yrotation
                        JOINT RightHand
                        {
                            OFFSET -29.023712 0.000000 0.000000
                            CHANNELS 3 Zrotation Xrotation Yrotation
                            End Site
                            {
                                OFFSET -15.273261 0.000000 0.000000
                            }
                        }
                    }
                }
            }
        }
    }
    JOINT LeftUpLeg
    {
        OFFSET 10.182174 0.000000 0.000000
        CHANNELS 3 Zrotation Xrotation Yrotation
        JOINT LeftLeg
        {
            OFFSET -0.000000 -49.689274 0.000000
            CHANNELS 3 Zrotation Xrotation Yrotation
            JOINT LeftFoot
            {
                OFFSET -0.000000 -39.155319 0.000000
                CHANNELS 3 Zrotation Xrotation Yrotation
                JOINT LeftToeBase
                {
                    OFFSET -0.000000 -6.618412 15.273261
                    CHANNELS 3 Zrotation Xrotation Yrotation
                    End Site
                    {
                        OFFSET -0.000000 0.000000 4.072869
                    }
                }
            }
        }
    }
    JOINT RightUpLeg
    {
        OFFSET -10.182174 0.000000 0.000000
        CHANNELS 3 Zrotation Xrotation Yrotation
        JOINT RightLeg
        {
            OFFSET -0.000000 -49.689274 0.000000
            CHANNELS 3 Zrotation Xrotation Yrotation
            JOINT RightFoot
            {
                OFFSET -0.000000 -39.155319 0.000000
                CHANNELS 3 Zrotation Xrotation Yrotation
                JOINT RightToeBase
                {
                    OFFSET -0.000000 -6.618412 15.273261
                    CHANNELS 3 Zrotation Xrotation Yrotation
                    End Site
                    {
                        OFFSET -0.000000 0.000000 4.072869
                    }
                }
            }
        }
    }
}
MOTION
Frames:    8
Frame Time:    0.008333
-137.676315    98.269562    20.841965    -1.636290    2.707193    93.154167    -0.755656    0.881789    1.116210    1.783251    2.379030    1.073396    4.210681    12.348369    9.925982    -5.051028    -7.451073    9.140296    16.784479    -2.205933    -16.459167    -10.544005    -2.353908    13.380803    3.468891    -6.960397    2.352162    1.316048    -6.979496    4.525027    -17.882891    3.939925    -23.527838    16.272854    -4.680034    0.458252    -4.501340    -4.278778    1.686650    -8.735126    -4.080246    -1.738357    -1.908190    0.596746    -8.645502    -5.863445    3.233720    -8.837555    2.888686    -2.775035    14.111852    0.000000    0.000000    0.000000    -2.067766    0.390324    -4.084038    5.223002    3.868062    -1.136282    -4.432973    -4.977905    1.436900    0.000000    0.000000    0.000000    
-137.684128    98.266907    20.838495    -1.613876    2.698162    93.117775    -0.754398    0.853914    1.129812    1.715692    2.473026    1.087189    4.196195    12.190145    9.877917    -4.925466    -7.303734    9.116433    16.820621    -2.256688    -16.405777    -10.655753    -2.300704    13.182353    3.590310    -7.372990    2.284236    0.834934    -7.411782    4.454834    -17.914888    3.935929    -23.516096    16.439381    -4.529137    0.514712    -4.516254    -4.445856    1.745304    -8.796747    -4.262239    -1.499528    -1.904798    0.622852    -8.637112    -5.859668    3.203312    -8.824546    2.946311    -2.719497    14.130400    0.000000    0.000000    0.000000    -2.083724    0.359731    -3.911523    5.293403    3.970063    -1.068365    -4.519706    -5.008161    1.183125    0.000000    0.000000    0.000000    
-137.695557    98.263153    20.838318    -1.583529    2.672920    93.085449    -0.755167    0.856673    1.150623    1.661433    2.500110    1.108706    4.236626    12.200671    9.828948    -4.876761    -7.333751    9.072926    16.823376    -2.271025    -16.431574    -10.816356    -2.159892    13.019794    3.678279    -7.676984    2.226782    1.212066    -7.699436    4.616199    -17.742874    4.014026    -23.463940    16.428015    -4.491662    0.568350    -4.515161    -4.704969    1.811261    -8.950429    -4.522901    -1.421439    -1.880242    0.653706    -8.602967    -5.856539    3.182192    -8.851069    2.976048    -2.702022    14.155840    0.000000    0.000000    0.000000    -2.008432    0.382171    -4.167033    5.172672    3.948727    -1.105477    -4.481000    -4.988153    1.504054    0.000000    0.000000    0.000000    
-137.727417    98.260796    20.825581    -1.585524    2.668751    93.019783    -0.762849    0.863184    1.185827    1.605086    2.503164    1.145049    4.233573    12.173377    9.767687    -4.782382    -7.333175    9.027348    16.783918    -2.264272    -16.442900    -10.806931    -2.236317    12.828967    3.624448    -7.846561    2.192071    1.297181    -7.862943    4.664168    -17.720245    4.020719    -23.423862    16.499760    -4.497295    0.629379    -4.478909    -4.822660    1.887980    -8.955726    -4.636470    -1.442758    -1.894042    0.644137    -8.542847    -5.841095    3.162806    -8.873450    3.013118    -2.649081    14.190471    0.000000    0.000000    0.000000    -2.008118    0.304506    -4.295764    5.145926    4.077567    -0.915105    -4.511734    -5.034925    1.480307    0.000000    0.000000    0.000000    
-137.738388    98.257370    20.837456    -1.570917    2.641990    93.011711    -0.808679    0.851122    1.192620    1.604849    2.495904    1.151661    4.263351    12.227721    9.723588    -4.719859    -7.360989    8.993998    16.713419    -2.169343    -16.528860    -10.761220    -2.375840    12.703903    3.623242    -7.756180    2.175709    0.991364    -7.785035    4.587039    -17.738789    3.942499    -23.350178    16.645670    -4.347733    0.688798    -4.500607    -4.738263    1.886300    -9.062023    -4.560595    -1.313795    -1.850643    0.665874    -8.537143    -5.860749    3.124683    -8.875594    3.052774    -2.623209    14.205008    0.000000    0.000000    0.000000    -1.950050    0.282380    -4.366948    5.130192    4.197579    -1.018829    -4.581880    -5.125959    1.535090    0.000000    0.000000    0.000000    
-137.746689    98.248146    20.839865    -1.545795    2.610013    93.004532    -0.809605    0.812616    1.196389    1.555309    2.591069    1.155475    4.315544    12.123437    9.686919    -4.688198    -7.251785    8.960458    16.714184    -2.155208    -16.576710    -10.909340    -2.329383    12.547872    3.669027    -7.673808    2.137578    1.061611    -7.699503    4.590542    -17.730946    3.928772    -23.300390    16.800798    -4.305171    0.778060    -4.461808    -4.567119    1.881827    -9.143476    -4.399023    -1.191841    -1.812450    0.703179    -8.541361    -5.866774    3.076331    -8.883717    3.087696    -2.617198    14.228337    0.000000    0.000000    0.000000    -1.901830    0.277921    -4.316784    5.111757    4.258154    -0.905444    -4.679926    -5.158716    1.340962    0.000000    0.000000    0.000000    
-137.757462    98.238426    20.842693    -1.508613    2.579797    92.996605    -0.807088    0.802985    1.190287    1.491444    2.657332    1.150094    4.342397    11.987725    9.653913    -4.576841    -7.053741    8.949872    16.706223    -2.150063    -16.604883    -10.931809    -2.383812    12.417425    3.569306    -7.717638    2.044138    1.573166    -7.714795    4.846188    -17.686779    3.899122    -23.223581    16.903446    -4.291408    0.874929    -4.421819    -4.522174    1.908926    -9.109522    -4.353556    -1.197799    -1.773743    0.756685    -8.515860    -5.870594    3.030765    -8.939516    3.130272    -2.607696    14.265859    0.000000    0.000000    0.000000    -1.850264    0.277544    -4.272350    5.089774    4.318237    -0.898102    -4.766122    -5.189736    1.252674    0.000000    0.000000    0.000000    
-137.767761    98.228531    20.844900    -1.474676    2.544987    92.981415    -0.804366    0.784396    1.188403    1.434045    2.726676    1.148792    4.456855    11.925560    9.634542    -4.655321    -6.971254    8.910036    16.720682    -2.224792    -16.657440    -10.955988    -2.536607    12.328054    3.482314    -7.227818    2.011467    1.128143    -7.243343    4.619168    -17.633776    3.877449    -23.133148    16.984097    -4.320371    0.968869    -4.358729    -4.412287    1.915339    -8.949200    -4.243185    -1.235543    -1.728314    0.807260    -8.508163    -5.884233    2.967827    -8.908599    3.157445    -2.594315    14.245707    0.000000    0.000000    0.000000    -1.783446    0.262185    -4.265524    5.000091    4.333640    -0.684567    -4.780467    -5.133251    1.104616    0.000000    0.000000    0.000000    
